<svg width="28" height="28" viewBox="0 0 28 28" fill="none" xmlns="http://www.w3.org/2000/svg">
<path d="M24.4999 23.3333C24.7973 23.3337 25.0833 23.4475 25.2995 23.6516C25.5158 23.8558 25.6459 24.1348 25.6633 24.4316C25.6807 24.7285 25.5842 25.0208 25.3933 25.2488C25.2024 25.4768 24.9317 25.6234 24.6364 25.6585L24.4999 25.6667H3.49994C3.20258 25.6663 2.91657 25.5525 2.70035 25.3483C2.48412 25.1442 2.354 24.8652 2.33658 24.5684C2.31915 24.2715 2.41573 23.9792 2.60659 23.7512C2.79744 23.5232 3.06817 23.3766 3.36344 23.3415L3.49994 23.3333H24.4999ZM9.25161 4.87316L16.9084 11.1265L22.2436 10.129C22.8861 10.009 23.5493 10.0713 24.1582 10.3088C24.7671 10.5464 25.2973 10.9496 25.6888 11.473L25.8778 11.7285C26.0878 12.0283 26.2464 12.3398 26.1636 12.7412C26.0375 13.3597 25.7414 13.9309 25.3086 14.3904C24.8758 14.85 24.3235 15.1798 23.7136 15.3428L6.07594 20.0667C5.72996 20.1593 5.36388 20.1435 5.02715 20.0214C4.69042 19.8994 4.39925 19.6769 4.19294 19.3842L1.08494 14.9718C1.03109 14.895 0.996559 14.8064 0.984273 14.7134C0.971987 14.6204 0.982311 14.5258 1.01437 14.4376C1.04643 14.3494 1.09927 14.2703 1.16843 14.2069C1.23758 14.1435 1.321 14.0978 1.41161 14.0735L3.30511 13.5648C3.58348 13.4901 3.87598 13.4853 4.15665 13.5509C4.43732 13.6164 4.69745 13.7502 4.91394 13.9405L5.78428 14.7058L5.79594 14.7082L10.6959 12.7948C10.6977 12.7942 10.6993 12.7931 10.7006 12.7917C10.7018 12.7903 10.7027 12.7886 10.7032 12.7867C10.7037 12.7849 10.7037 12.783 10.7032 12.7811C10.7028 12.7793 10.7019 12.7776 10.7006 12.7762L5.18811 6.06199C5.12627 5.9866 5.08432 5.8969 5.06609 5.80111C5.04786 5.70532 5.05394 5.60648 5.08376 5.51364C5.11358 5.4208 5.16621 5.33692 5.23681 5.26967C5.30742 5.20241 5.39376 5.15393 5.48794 5.12866L7.69294 4.53833C7.9607 4.46672 8.24164 4.45973 8.51262 4.51795C8.7836 4.57616 9.03689 4.6979 9.25161 4.87316Z" fill="#5664E1"/>
</svg>
