<svg width="28" height="28" viewBox="0 0 28 28" fill="none" xmlns="http://www.w3.org/2000/svg">
<path fill-rule="evenodd" clip-rule="evenodd" d="M19.8333 3.5C20.4522 3.5 21.0457 3.74583 21.4832 4.18342C21.9208 4.621 22.1667 5.21449 22.1667 5.83333V7H23.3333C23.6428 7 23.9395 7.12292 24.1583 7.34171C24.3771 7.5605 24.5 7.85725 24.5 8.16667C24.5 8.47609 24.3771 8.77283 24.1583 8.99162C23.9395 9.21042 23.6428 9.33333 23.3333 9.33333V22.1667C23.6428 22.1667 23.9395 22.2896 24.1583 22.5084C24.3771 22.7272 24.5 23.0239 24.5 23.3333C24.5 23.6428 24.3771 23.9395 24.1583 24.1583C23.9395 24.3771 23.6428 24.5 23.3333 24.5H15.75V19.25C15.75 18.7859 15.5656 18.3408 15.2374 18.0126C14.9092 17.6844 14.4641 17.5 14 17.5C13.5359 17.5 13.0908 17.6844 12.7626 18.0126C12.4344 18.3408 12.25 18.7859 12.25 19.25V24.5H4.66667C4.35725 24.5 4.0605 24.3771 3.84171 24.1583C3.62292 23.9395 3.5 23.6428 3.5 23.3333C3.5 23.0239 3.62292 22.7272 3.84171 22.5084C4.0605 22.2896 4.35725 22.1667 4.66667 22.1667V9.33333C4.35725 9.33333 4.0605 9.21042 3.84171 8.99162C3.62292 8.77283 3.5 8.47609 3.5 8.16667C3.5 7.85725 3.62292 7.5605 3.84171 7.34171C4.0605 7.12292 4.35725 7 4.66667 7H5.83333V5.83333C5.83333 5.21449 6.07917 4.621 6.51675 4.18342C6.95434 3.74583 7.54783 3.5 8.16667 3.5H19.8333ZM9.33333 15.1667C9.02391 15.1667 8.72717 15.2896 8.50838 15.5084C8.28958 15.7272 8.16667 16.0239 8.16667 16.3333V17.5C8.16667 17.8094 8.28958 18.1062 8.50838 18.325C8.72717 18.5437 9.02391 18.6667 9.33333 18.6667C9.64275 18.6667 9.9395 18.5437 10.1583 18.325C10.3771 18.1062 10.5 17.8094 10.5 17.5V16.3333C10.5 16.0239 10.3771 15.7272 10.1583 15.5084C9.9395 15.2896 9.64275 15.1667 9.33333 15.1667ZM18.6667 15.1667C18.3809 15.1667 18.1051 15.2716 17.8916 15.4615C17.678 15.6514 17.5416 15.913 17.5082 16.1968L17.5 16.3333V17.5C17.5003 17.7974 17.6142 18.0834 17.8183 18.2996C18.0225 18.5158 18.3014 18.6459 18.5983 18.6634C18.8951 18.6808 19.1874 18.5842 19.4155 18.3934C19.6435 18.2025 19.79 17.9318 19.8252 17.6365L19.8333 17.5V16.3333C19.8333 16.0239 19.7104 15.7272 19.4916 15.5084C19.2728 15.2896 18.9761 15.1667 18.6667 15.1667ZM9.33333 10.5C9.04758 10.5 8.77177 10.6049 8.55823 10.7948C8.34469 10.9847 8.20827 11.2464 8.17483 11.5302L8.16667 11.6667V12.8333C8.167 13.1307 8.28086 13.4167 8.48499 13.6329C8.68912 13.8492 8.96811 13.9793 9.26496 13.9967C9.56181 14.0141 9.85411 13.9175 10.0821 13.7267C10.3102 13.5358 10.4567 13.2651 10.4918 12.9698L10.5 12.8333V11.6667C10.5 11.3572 10.3771 11.0605 10.1583 10.8417C9.9395 10.6229 9.64275 10.5 9.33333 10.5ZM14 10.5C13.7142 10.5 13.4384 10.6049 13.2249 10.7948C13.0114 10.9847 12.8749 11.2464 12.8415 11.5302L12.8333 11.6667V12.8333C12.8337 13.1307 12.9475 13.4167 13.1517 13.6329C13.3558 13.8492 13.6348 13.9793 13.9316 13.9967C14.2285 14.0141 14.5208 13.9175 14.7488 13.7267C14.9768 13.5358 15.1234 13.2651 15.1585 12.9698L15.1667 12.8333V11.6667C15.1667 11.3572 15.0437 11.0605 14.825 10.8417C14.6062 10.6229 14.3094 10.5 14 10.5ZM18.6667 10.5C18.3572 10.5 18.0605 10.6229 17.8417 10.8417C17.6229 11.0605 17.5 11.3572 17.5 11.6667V12.8333C17.5 13.1428 17.6229 13.4395 17.8417 13.6583C18.0605 13.8771 18.3572 14 18.6667 14C18.9761 14 19.2728 13.8771 19.4916 13.6583C19.7104 13.4395 19.8333 13.1428 19.8333 12.8333V11.6667C19.8333 11.3572 19.7104 11.0605 19.4916 10.8417C19.2728 10.6229 18.9761 10.5 18.6667 10.5ZM19.8333 5.83333H8.16667V7H19.8333V5.83333Z" fill="#447A11"/>
</svg>
